<mxfile host="app.diagrams.net" modified="2020-09-14T14:04:40.876Z" agent="5.0 (Windows)" etag="7bz4NeS3TfOKkgGCBMy0" version="13.6.10" type="github">
  <diagram id="H3ixN3oLYyR-_zxuuHG0" name="Page-1">
    <mxGraphModel dx="1120" dy="693" grid="1" gridSize="10" guides="1" tooltips="1" connect="1" arrows="1" fold="1" page="1" pageScale="1" pageWidth="850" pageHeight="1100" math="0" shadow="0">
      <root>
        <mxCell id="0" />
        <mxCell id="1" parent="0" />
        <mxCell id="1s43ycaaGnTUGPJuPQ-5-3" value="Dekomponuojamas procesas &quot; Manufacturing&quot;" style="text;html=1;strokeColor=none;fillColor=none;align=center;verticalAlign=middle;whiteSpace=wrap;rounded=0;" parent="1" vertex="1">
          <mxGeometry x="415" y="30" width="290" height="20" as="geometry" />
        </mxCell>
        <mxCell id="1s43ycaaGnTUGPJuPQ-5-4" value="Supplies werehouse" style="rounded=0;whiteSpace=wrap;html=1;" parent="1" vertex="1">
          <mxGeometry x="40" y="230" width="120" height="60" as="geometry" />
        </mxCell>
        <mxCell id="1s43ycaaGnTUGPJuPQ-5-5" value="Product quality and performance control check" style="ellipse;whiteSpace=wrap;html=1;" parent="1" vertex="1">
          <mxGeometry x="590" y="380" width="120" height="80" as="geometry" />
        </mxCell>
        <mxCell id="1s43ycaaGnTUGPJuPQ-5-6" value="VadovybÄ—" style="whiteSpace=wrap;html=1;aspect=fixed;" parent="1" vertex="1">
          <mxGeometry x="730" y="170" width="110" height="110" as="geometry" />
        </mxCell>
        <mxCell id="1s43ycaaGnTUGPJuPQ-5-8" value="Chassis collection workshop" style="ellipse;whiteSpace=wrap;html=1;" parent="1" vertex="1">
          <mxGeometry x="260" y="80" width="120" height="80" as="geometry" />
        </mxCell>
        <mxCell id="1s43ycaaGnTUGPJuPQ-5-9" value="Body parts collection workshop" style="ellipse;whiteSpace=wrap;html=1;" parent="1" vertex="1">
          <mxGeometry x="260" y="220" width="120" height="80" as="geometry" />
        </mxCell>
        <mxCell id="1s43ycaaGnTUGPJuPQ-5-10" value="Interior parts collection workshop" style="ellipse;whiteSpace=wrap;html=1;" parent="1" vertex="1">
          <mxGeometry x="260" y="360" width="120" height="80" as="geometry" />
        </mxCell>
        <mxCell id="1s43ycaaGnTUGPJuPQ-5-11" value="" style="endArrow=classic;html=1;entryX=0.05;entryY=0.738;entryDx=0;entryDy=0;entryPerimeter=0;exitX=0.5;exitY=0;exitDx=0;exitDy=0;" parent="1" target="1s43ycaaGnTUGPJuPQ-5-8" edge="1">
          <mxGeometry width="50" height="50" relative="1" as="geometry">
            <mxPoint x="100" y="230" as="sourcePoint" />
            <mxPoint x="180" y="160" as="targetPoint" />
          </mxGeometry>
        </mxCell>
        <mxCell id="1s43ycaaGnTUGPJuPQ-5-26" value="Supplies_1" style="edgeLabel;html=1;align=center;verticalAlign=middle;resizable=0;points=[];" parent="1s43ycaaGnTUGPJuPQ-5-11" vertex="1" connectable="0">
          <mxGeometry x="0.2969" y="-1" relative="1" as="geometry">
            <mxPoint as="offset" />
          </mxGeometry>
        </mxCell>
        <mxCell id="1s43ycaaGnTUGPJuPQ-5-12" value="" style="endArrow=classic;html=1;entryX=0;entryY=0.5;entryDx=0;entryDy=0;exitX=1;exitY=0.5;exitDx=0;exitDy=0;" parent="1" target="1s43ycaaGnTUGPJuPQ-5-9" edge="1">
          <mxGeometry width="50" height="50" relative="1" as="geometry">
            <mxPoint x="160" y="260" as="sourcePoint" />
            <mxPoint x="270" y="200" as="targetPoint" />
          </mxGeometry>
        </mxCell>
        <mxCell id="1s43ycaaGnTUGPJuPQ-5-25" value="Supplies_2" style="edgeLabel;html=1;align=center;verticalAlign=middle;resizable=0;points=[];" parent="1s43ycaaGnTUGPJuPQ-5-12" vertex="1" connectable="0">
          <mxGeometry x="0.1967" y="2" relative="1" as="geometry">
            <mxPoint x="-10" y="2" as="offset" />
          </mxGeometry>
        </mxCell>
        <mxCell id="1s43ycaaGnTUGPJuPQ-5-13" value="" style="endArrow=classic;html=1;entryX=0;entryY=0.5;entryDx=0;entryDy=0;exitX=0.5;exitY=1;exitDx=0;exitDy=0;" parent="1" target="1s43ycaaGnTUGPJuPQ-5-10" edge="1">
          <mxGeometry width="50" height="50" relative="1" as="geometry">
            <mxPoint x="100" y="290" as="sourcePoint" />
            <mxPoint x="190" y="280" as="targetPoint" />
          </mxGeometry>
        </mxCell>
        <mxCell id="1s43ycaaGnTUGPJuPQ-5-24" value="&lt;div&gt;Supplies_3&lt;/div&gt;" style="edgeLabel;html=1;align=center;verticalAlign=middle;resizable=0;points=[];" parent="1s43ycaaGnTUGPJuPQ-5-13" vertex="1" connectable="0">
          <mxGeometry x="0.1134" y="3" relative="1" as="geometry">
            <mxPoint as="offset" />
          </mxGeometry>
        </mxCell>
        <mxCell id="1s43ycaaGnTUGPJuPQ-5-19" value="" style="endArrow=classic;html=1;entryX=0.25;entryY=1;entryDx=0;entryDy=0;exitX=0.5;exitY=0;exitDx=0;exitDy=0;" parent="1" source="1s43ycaaGnTUGPJuPQ-5-5" target="1s43ycaaGnTUGPJuPQ-5-6" edge="1">
          <mxGeometry width="50" height="50" relative="1" as="geometry">
            <mxPoint x="780" y="230" as="sourcePoint" />
            <mxPoint x="830" y="180" as="targetPoint" />
          </mxGeometry>
        </mxCell>
        <mxCell id="1s43ycaaGnTUGPJuPQ-5-41" value="Report" style="edgeLabel;html=1;align=center;verticalAlign=middle;resizable=0;points=[];" parent="1s43ycaaGnTUGPJuPQ-5-19" vertex="1" connectable="0">
          <mxGeometry x="0.2686" relative="1" as="geometry">
            <mxPoint as="offset" />
          </mxGeometry>
        </mxCell>
        <mxCell id="1s43ycaaGnTUGPJuPQ-5-27" value="Assemble product" style="ellipse;whiteSpace=wrap;html=1;" parent="1" vertex="1">
          <mxGeometry x="490" y="220" width="120" height="80" as="geometry" />
        </mxCell>
        <mxCell id="1s43ycaaGnTUGPJuPQ-5-28" value="" style="endArrow=classic;html=1;exitX=1;exitY=0.5;exitDx=0;exitDy=0;entryX=0;entryY=0;entryDx=0;entryDy=0;" parent="1" source="1s43ycaaGnTUGPJuPQ-5-8" target="1s43ycaaGnTUGPJuPQ-5-27" edge="1">
          <mxGeometry width="50" height="50" relative="1" as="geometry">
            <mxPoint x="360" y="160" as="sourcePoint" />
            <mxPoint x="410" y="110" as="targetPoint" />
            <Array as="points">
              <mxPoint x="440" y="170" />
            </Array>
          </mxGeometry>
        </mxCell>
        <mxCell id="1s43ycaaGnTUGPJuPQ-5-38" value="Product_parts_1" style="edgeLabel;html=1;align=center;verticalAlign=middle;resizable=0;points=[];" parent="1s43ycaaGnTUGPJuPQ-5-28" vertex="1" connectable="0">
          <mxGeometry x="0.1049" y="1" relative="1" as="geometry">
            <mxPoint x="-22.41" y="-9.98" as="offset" />
          </mxGeometry>
        </mxCell>
        <mxCell id="1s43ycaaGnTUGPJuPQ-5-29" value="" style="endArrow=classic;html=1;exitX=1;exitY=0.5;exitDx=0;exitDy=0;entryX=0;entryY=0.5;entryDx=0;entryDy=0;" parent="1" source="1s43ycaaGnTUGPJuPQ-5-9" target="1s43ycaaGnTUGPJuPQ-5-27" edge="1">
          <mxGeometry width="50" height="50" relative="1" as="geometry">
            <mxPoint x="415" y="275" as="sourcePoint" />
            <mxPoint x="465" y="225" as="targetPoint" />
          </mxGeometry>
        </mxCell>
        <mxCell id="1s43ycaaGnTUGPJuPQ-5-39" value="Product_parts_2" style="edgeLabel;html=1;align=center;verticalAlign=middle;resizable=0;points=[];" parent="1s43ycaaGnTUGPJuPQ-5-29" vertex="1" connectable="0">
          <mxGeometry x="-0.1818" y="4" relative="1" as="geometry">
            <mxPoint x="5" y="-6" as="offset" />
          </mxGeometry>
        </mxCell>
        <mxCell id="1s43ycaaGnTUGPJuPQ-5-31" value="" style="endArrow=classic;html=1;exitX=1;exitY=0.5;exitDx=0;exitDy=0;entryX=0;entryY=1;entryDx=0;entryDy=0;" parent="1" source="1s43ycaaGnTUGPJuPQ-5-10" target="1s43ycaaGnTUGPJuPQ-5-27" edge="1">
          <mxGeometry width="50" height="50" relative="1" as="geometry">
            <mxPoint x="440" y="370" as="sourcePoint" />
            <mxPoint x="490" y="320" as="targetPoint" />
          </mxGeometry>
        </mxCell>
        <mxCell id="1s43ycaaGnTUGPJuPQ-5-40" value="Product_parts_3" style="edgeLabel;html=1;align=center;verticalAlign=middle;resizable=0;points=[];" parent="1s43ycaaGnTUGPJuPQ-5-31" vertex="1" connectable="0">
          <mxGeometry x="0.2793" y="-1" relative="1" as="geometry">
            <mxPoint x="-31.91" y="10.4" as="offset" />
          </mxGeometry>
        </mxCell>
        <mxCell id="1s43ycaaGnTUGPJuPQ-5-32" value="" style="endArrow=classic;html=1;entryX=0;entryY=0.5;entryDx=0;entryDy=0;exitX=0.5;exitY=1;exitDx=0;exitDy=0;" parent="1" source="1s43ycaaGnTUGPJuPQ-5-27" target="1s43ycaaGnTUGPJuPQ-5-5" edge="1">
          <mxGeometry width="50" height="50" relative="1" as="geometry">
            <mxPoint x="560" y="370" as="sourcePoint" />
            <mxPoint x="610" y="320" as="targetPoint" />
          </mxGeometry>
        </mxCell>
        <mxCell id="1s43ycaaGnTUGPJuPQ-5-33" value="Product_check" style="edgeLabel;html=1;align=center;verticalAlign=middle;resizable=0;points=[];" parent="1s43ycaaGnTUGPJuPQ-5-32" vertex="1" connectable="0">
          <mxGeometry x="-0.21" y="1" relative="1" as="geometry">
            <mxPoint y="12.88" as="offset" />
          </mxGeometry>
        </mxCell>
        <mxCell id="1s43ycaaGnTUGPJuPQ-5-42" value="Product repair" style="ellipse;whiteSpace=wrap;html=1;" parent="1" vertex="1">
          <mxGeometry x="365" y="480" width="120" height="80" as="geometry" />
        </mxCell>
        <mxCell id="1s43ycaaGnTUGPJuPQ-5-43" value="" style="endArrow=classic;html=1;exitX=0.5;exitY=0;exitDx=0;exitDy=0;entryX=0;entryY=0.5;entryDx=0;entryDy=0;" parent="1" source="1s43ycaaGnTUGPJuPQ-5-42" target="1s43ycaaGnTUGPJuPQ-5-5" edge="1">
          <mxGeometry width="50" height="50" relative="1" as="geometry">
            <mxPoint x="380" y="490" as="sourcePoint" />
            <mxPoint x="430" y="440" as="targetPoint" />
          </mxGeometry>
        </mxCell>
        <mxCell id="1s43ycaaGnTUGPJuPQ-5-44" value="Repaired_product" style="edgeLabel;html=1;align=center;verticalAlign=middle;resizable=0;points=[];" parent="1s43ycaaGnTUGPJuPQ-5-43" vertex="1" connectable="0">
          <mxGeometry x="-0.2868" y="1" relative="1" as="geometry">
            <mxPoint x="40.77" y="-7.56" as="offset" />
          </mxGeometry>
        </mxCell>
        <mxCell id="1s43ycaaGnTUGPJuPQ-5-46" value="" style="endArrow=classic;html=1;entryX=0;entryY=0.5;entryDx=0;entryDy=0;exitX=0;exitY=1;exitDx=0;exitDy=0;" parent="1" source="1s43ycaaGnTUGPJuPQ-5-4" target="1s43ycaaGnTUGPJuPQ-5-42" edge="1">
          <mxGeometry width="50" height="50" relative="1" as="geometry">
            <mxPoint x="110" y="430" as="sourcePoint" />
            <mxPoint x="230" y="430" as="targetPoint" />
          </mxGeometry>
        </mxCell>
        <mxCell id="1s43ycaaGnTUGPJuPQ-5-48" value="Supplies_Repair" style="edgeLabel;html=1;align=center;verticalAlign=middle;resizable=0;points=[];" parent="1s43ycaaGnTUGPJuPQ-5-46" vertex="1" connectable="0">
          <mxGeometry x="-0.1905" y="1" relative="1" as="geometry">
            <mxPoint as="offset" />
          </mxGeometry>
        </mxCell>
        <mxCell id="1s43ycaaGnTUGPJuPQ-5-52" value="" style="endArrow=classic;html=1;exitX=0;exitY=1;exitDx=0;exitDy=0;entryX=1;entryY=0.5;entryDx=0;entryDy=0;" parent="1" source="1s43ycaaGnTUGPJuPQ-5-5" target="1s43ycaaGnTUGPJuPQ-5-42" edge="1">
          <mxGeometry width="50" height="50" relative="1" as="geometry">
            <mxPoint x="630" y="520" as="sourcePoint" />
            <mxPoint x="485" y="513" as="targetPoint" />
          </mxGeometry>
        </mxCell>
        <mxCell id="1s43ycaaGnTUGPJuPQ-5-53" value="Bad_product" style="edgeLabel;html=1;align=center;verticalAlign=middle;resizable=0;points=[];" parent="1s43ycaaGnTUGPJuPQ-5-52" vertex="1" connectable="0">
          <mxGeometry x="0.2" y="-2" relative="1" as="geometry">
            <mxPoint x="17" y="-8" as="offset" />
          </mxGeometry>
        </mxCell>
        <mxCell id="1s43ycaaGnTUGPJuPQ-5-54" value="" style="endArrow=classic;html=1;exitX=1;exitY=1;exitDx=0;exitDy=0;entryX=0;entryY=0.5;entryDx=0;entryDy=0;" parent="1" source="1s43ycaaGnTUGPJuPQ-5-5" target="BYM-QFDNN6oCVl6qZ0pt-2" edge="1">
          <mxGeometry width="50" height="50" relative="1" as="geometry">
            <mxPoint x="670" y="520" as="sourcePoint" />
            <mxPoint x="760" y="520" as="targetPoint" />
          </mxGeometry>
        </mxCell>
        <mxCell id="1s43ycaaGnTUGPJuPQ-5-55" value="Good_product" style="edgeLabel;html=1;align=center;verticalAlign=middle;resizable=0;points=[];" parent="1s43ycaaGnTUGPJuPQ-5-54" vertex="1" connectable="0">
          <mxGeometry x="0.2333" y="-1" relative="1" as="geometry">
            <mxPoint x="-15" y="-11" as="offset" />
          </mxGeometry>
        </mxCell>
        <mxCell id="BYM-QFDNN6oCVl6qZ0pt-2" value="product werehouse" style="rounded=0;whiteSpace=wrap;html=1;" vertex="1" parent="1">
          <mxGeometry x="760" y="500" width="120" height="60" as="geometry" />
        </mxCell>
      </root>
    </mxGraphModel>
  </diagram>
</mxfile>
